<svg id="Capa_1" enable-background="new 0 0 495.904 495.904" height="512" viewBox="0 0 495.904 495.904" width="512" xmlns="http://www.w3.org/2000/svg"><path d="m437.912 18.233h-81.78l-122.349 34.429-107.972 100.866-35.332 130.27-9.815 102.36-10.01 2.914v11.959 1.56l20.72 20.14h97.24c46.22 0 90.04-10.22 129.36-28.49 3.02-1.41 4.49-4.85 3.45-8.021-1.75-5.31-2.57-11.03-2.28-16.99 1.19-23.97 20.72-43.4 44.69-44.46 11.93-.53 22.93 3.4 31.47 10.27 2.59 2.08 6.32 1.89 8.69-.44 56.72-55.75 91.91-133.34 91.91-219.16v-91.814z" fill="#bbec6c"/><g fill="#dbf4b2"><path d="m141.597 161.028v182.694c0 4.143 3.358 7.5 7.5 7.5s7.5-3.357 7.5-7.5v-182.694z"/><path d="m208.515 78.618v199.046c0 3.388 3.358 6.134 7.5 6.134s7.5-2.746 7.5-6.134v-206.676c-5.096 2.428-10.095 4.974-15 7.63z"/><path d="m273.527 60.255v157.968c0 3.043 3.358 5.51 7.5 5.51s7.5-2.467 7.5-5.51v-161.625c-5.056 1.128-10.059 2.346-15 3.657z"/><path d="m341.132 51.303v103.508c0 2.633 3.358 4.766 7.5 4.766s7.5-2.134 7.5-4.766v-104.412c-5.034.224-10.034.527-15 .904z"/><path d="m413.519 42.995v36.235c0 4.143 3.358 7.5 7.5 7.5s7.5-3.357 7.5-7.5v-36.235z"/></g><path d="m87.926 369.314c0-169.71 137.58-307.28 307.29-307.28h100.689v-48.942c0-4.47-3.62-8.09-8.09-8.09h-109.87c-169.71 0-307.29 137.57-307.29 307.28v88.75 1.56l17.271 16.788z" fill="#a2e62e"/><path d="m450.508 40.711c-27.894 21.879-54.642 45.188-80.107 69.864l-367.404 356.022c-3.914 3.793-4.006 10.043-.204 13.95l7.178 7.375c3.79 3.894 10.017 3.985 13.919.204l343.15-332.52c36.827-35.686 70.88-74.101 101.894-114.895z" fill="#dbf4b2"/><g><path d="m491.986 9.17-26.25 19.8c-14.124 10.654-27.947 21.693-41.49 33.064h28.018c13.798-17.181 27.056-34.804 39.722-52.864z" fill="#d1f19e"/></g><g><path d="m495.904 70.988h-71.762c-4.142 0-7.5 3.357-7.5 7.5s3.358 7.5 7.5 7.5h71.762z" fill="#dbf4b2"/><path d="m413.519 5.002h15v57.032h-15z" fill="#d1f19e"/></g><g><path d="m494.388 146.028h-143.227c-4.142 0-7.5 3.357-7.5 7.5s3.358 7.5 7.5 7.5h141.367c.738-4.963 1.362-9.963 1.86-15z" fill="#dbf4b2"/><path d="m341.132 66.782c4.96-.881 9.961-1.645 15-2.285v-58.715c-5.035.353-10.035.83-15 1.423z" fill="#d1f19e"/></g><g><path d="m273.527 87.091c4.936-2.131 9.934-4.143 15-6.019v-62.839c-5.056 1.535-10.058 3.193-15 4.978z" fill="#d1f19e"/><path d="m482.211 206.365h-195.205c-4.142 0-7.5 3.357-7.5 7.5s3.358 7.5 7.5 7.5h190.139c1.814-4.941 3.501-9.944 5.066-15z" fill="#dbf4b2"/></g><g><path d="m208.515 125.26c4.891-3.747 9.884-7.366 15-10.819v-67.858c-5.096 2.968-10.096 6.083-15 9.33z" fill="#d1f19e"/><path d="m453.713 270.899h-232.8c-4.142 0-7.5 3.357-7.5 7.5s3.358 7.5 7.5 7.5h223.378c3.277-4.904 6.425-9.902 9.422-15z" fill="#dbf4b2"/></g><g><path d="m151.591 337.789c-4.142 0-7.5 3.357-7.5 7.5s3.358 7.5 7.5 7.5h171.467c2.509-5.671 6.115-10.76 10.542-15z" fill="#dbf4b2"/></g><path d="m141.597 115.908v79.883c4.731-6.901 9.736-13.597 15-20.076v-76.556c-5.199 5.398-10.203 10.983-15 16.749z" fill="#d1f19e"/></svg>